# xmcd
#
# Track frame offsets:
# 150
# 27752
# 45287
# 67205
# 90540
# 108262
# 126515
# 151002
# 168045
# 188972
# 217762
# 237867
# 260207
# 280025
#
# Disc length: 4433 seconds
#
#
# Revision: 0
# Processed by: cddbd v1.4PL0 Copyright (c) Steve Scherf et al.
# Submitted via: FreeRIP 2.21 
#
DISCID=b6114f0e
DTITLE=Mary Chapin Carpenter - Time* Sex* Love*
DYEAR=2001
DGENRE=Country
TTITLE0=Whenever You're Ready
TTITLE1=Simple Life
TTITLE2=Swept Away
TTITLE3=Slave To The Beauty
TTITLE4=Maybe World
TTITLE5=What Was It Like
TTITLE6=King Of Love
TTITLE7=This Is Me Leaving You
TTITLE8=Someone Else's Prayer
TTITLE9=The Dreaming Road
TTITLE10=Alone But Not Lonely
TTITLE11=The Long Way Home
TTITLE12=In The Name Of Love
TTITLE13=Late For Your Life
EXTD=
EXTT0=
EXTT1=
EXTT2=
EXTT3=
EXTT4=
EXTT5=
EXTT6=
EXTT7=
EXTT8=
EXTT9=
EXTT10=
EXTT11=
EXTT12=
EXTT13=
PLAYORDER=
